<svg height="480" viewBox="0 0 492 480" width="492" xmlns="http://www.w3.org/2000/svg"><path d="m458.526 122.505c-21.975-37.68-51.783-67.51-89.432-89.499-37.654-21.99-78.761-32.982-123.351-32.982-44.583 0-85.704 10.995-123.35 32.982-37.652 21.988-67.459 51.819-89.435 89.499-21.972 37.678-32.958 78.822-32.958 123.432 0 53.587 15.623 101.774 46.877 144.573 31.25 42.803 71.621 72.42 121.109 88.856 5.761 1.07 10.025.318 12.798-2.238 2.773-2.56 4.159-5.765 4.159-9.603 0-.64-.055-6.402-.162-17.291-.11-10.889-.161-20.388-.161-28.493l-7.36 1.274c-4.692.86-10.612 1.224-17.759 1.121-7.144-.1-14.559-.849-22.237-2.242-7.682-1.38-14.827-4.582-21.44-9.599-6.61-5.017-11.303-11.583-14.076-19.69l-3.2-7.368c-2.133-4.906-5.491-10.355-10.078-16.329-4.587-5.979-9.226-10.032-13.918-12.166l-2.24-1.605c-1.493-1.067-2.878-2.353-4.159-3.846-1.28-1.493-2.238-2.986-2.878-4.483-.641-1.497-.11-2.725 1.599-3.688 1.709-.964 4.798-1.431 9.28-1.431l6.397.956c4.266.856 9.544 3.412 15.839 7.684 6.292 4.269 11.464 9.818 15.518 16.646 4.908 8.754 10.822 15.425 17.759 20.016 6.93 4.59 13.918 6.882 20.956 6.882s13.117-.534 18.239-1.596c5.116-1.068 9.916-2.673 14.398-4.806 1.92-14.309 7.147-25.301 15.677-32.984-12.158-1.279-23.089-3.205-32.797-5.765-9.704-2.564-19.731-6.725-30.075-12.494-10.35-5.761-18.936-12.916-25.76-21.451-6.825-8.539-12.427-19.75-16.796-33.622-4.372-13.878-6.559-29.887-6.559-48.031 0-25.835 8.428-47.819 25.28-65.965-7.894-19.423-7.149-41.197 2.238-65.319 6.187-1.923 15.361-.48 27.519 4.322 12.16 4.803 21.063 8.918 26.718 12.33 5.655 3.41 10.186 6.301 13.6 8.645 19.842-5.549 40.319-8.323 61.436-8.323s41.598 2.774 61.442 8.323l12.159-7.682c8.314-5.125 18.133-9.822 29.432-14.092 11.306-4.267 19.951-5.443 25.927-3.519 9.596 24.123 10.451 45.895 2.554 65.318 16.852 18.146 25.283 40.136 25.283 65.965 0 18.145-2.195 34.204-6.56 48.188-4.371 13.987-10.02 25.187-16.951 33.623-6.938 8.435-15.579 15.533-25.923 21.293-10.347 5.765-20.377 9.926-30.081 12.49-9.708 2.564-20.638 4.49-32.796 5.771 11.089 9.603 16.634 24.76 16.634 45.466v67.558c0 3.838 1.334 7.042 4.003 9.603 2.667 2.556 6.877 3.308 12.638 2.237 49.494-16.434 89.865-46.052 121.115-88.855 31.246-42.799 46.874-90.985 46.874-144.573-.011-44.604-11.003-85.745-32.965-123.423z" fill="#fff"/></svg>