<svg height="1618" viewBox="0 0 1590 1618" width="1590" xmlns="http://www.w3.org/2000/svg"><g fill="#fff" fill-rule="evenodd"><path d="m379.833008 149.395508v1319.170044h-96.864716v-1319.170044zm904.996216 0-628.242798 624.540954 650.381836 694.62909h-144.834351l-602.401916-662.381958v-57.172791l592.252746-599.615295z"/><path d="m128.503235 804.632813c0 475.12622 224.235321 712.739013 672.606506 712.739013 440.215332 0 660.322998-237.612793 660.322998-712.739013 0-469.258057-220.107666-703.787598-660.322998-703.787598-448.371185 0-672.606506 234.529541-672.606506 703.787598zm-128.255235 6.663879c0-540.571716 266.953904-810.907288 800.861741-810.907288 525.702271 0 788.578247 270.335572 788.578247 810.907288 0 537.687317-262.875976 806.431579-788.578247 806.431579-533.907837 0-800.861741-268.744262-800.861741-806.431579z"/></g></svg>